<?xml version="1.0" encoding="UTF-8"?>
<svg id="Layer_1" data-name="Layer 1" xmlns="http://www.w3.org/2000/svg" viewBox="0 0 53 52">
  <path d="m29,2.5c7.94,0,12.9,3.98,15.67,7.31,3.76,4.54,5.83,10.64,5.83,17.19,0,5.79-3.17,11.4-8.92,15.79-5.51,4.2-12.82,6.71-19.58,6.71-6.13,0-11.02-2.57-14.54-7.64-3.2-4.61-4.96-10.95-4.96-17.86,0-5.84,2.82-11.28,7.95-15.32,4.99-3.93,11.75-6.18,18.55-6.18m0-2.5C14.09,0,0,9.92,0,24s7.09,28,22,28,31-10.92,31-25S43.91,0,29,0h0Z" style="fill: #38230d;"/>
  <path d="m13.5,39.5c1.57,1.4,2.88,3.85,9,4,3.79.09,6.53-.27,12-3,6.77-3.38,7.72-7.81,8-9,.28-1.19.16-2.26,0-3" style="fill: none; stroke: #38230d; stroke-miterlimit: 10; stroke-width: 1.5px;"/>
  <ellipse cx="14.75" cy="23" rx="2.25" ry="4.5" style="fill: #38230d; stroke: #38230d; stroke-miterlimit: 10; stroke-width: .6px;"/>
  <ellipse cx="33.79" cy="21.5" rx="2.29" ry="4" style="fill: #38230d; stroke: #38230d; stroke-miterlimit: 10; stroke-width: .6px;"/>
</svg>