<?xml version="1.0" encoding="UTF-8"?>
<svg id="Layer_1" data-name="Layer 1" xmlns="http://www.w3.org/2000/svg" viewBox="0 0 316.04 86.07">
  <polygon points="95.87 0 96.37 77.1 109.37 76.3 109.55 38 123.37 75.5 140.37 74.7 139.87 0 126.3 0 126.37 47.5 108.61 0 95.87 0" style="fill: #db0000;"/>
  <polygon points="50.41 0 50.41 79.27 87.37 77.5 87.37 64.02 63.37 65.5 63.37 45.5 81.37 44.5 81.37 31.5 63.37 31.5 63.37 13.5 87.37 13.2 87.37 0 50.41 0" style="fill: #db0000;"/>
  <polygon points="0 .68 .11 13.68 14.11 13.56 13.75 86.07 26.72 83.45 27.11 13.33 42.11 13.32 42 .32 0 .68" style="fill: #db0000;"/>
  <polygon points="148.97 0 148.97 74.75 161.37 74.5 161.37 44.07 180.37 43.5 180.37 31.17 162.37 31.5 162.37 13.5 186.37 13.5 186.37 0 148.97 0" style="fill: #db0000;"/>
  <polygon points="195.27 0 195.37 75.5 231.37 77.5 231.37 64.3 208.37 63.5 208.58 0 195.27 0" style="fill: #db0000;"/>
  <polygon points="243.29 0 243.29 78.33 256.37 79.5 256.37 0 243.29 0" style="fill: #db0000;"/>
  <polygon points="267.78 0 283.98 39.75 267.78 80.47 280.37 81.5 290.37 59.5 301.37 84.5 316.04 86 298.37 40.5 316.04 0 301.33 0 292.37 21.5 283.15 0 267.78 0" style="fill: #db0000;"/>
</svg>